<svg xmlns="http://www.w3.org/2000/svg" width="430" height="430" style="width:100%;height:100%;transform:translate3d(0,0,0);content-visibility:visible" viewBox="0 0 430 430"><defs><clipPath id="g"><path d="M0 0h430v430H0z"/></clipPath><clipPath id="k"><path d="M0 0h430v430H0z"/></clipPath><clipPath id="j"><path d="M0 0h430v430H0z"/></clipPath><clipPath id="i"><path d="M0 0h430v430H0z"/></clipPath><clipPath id="h"><path d="M0 0h430v430H0z"/></clipPath><filter id="a" width="100%" height="100%" x="0%" y="0%" filterUnits="objectBoundingBox"><feComponentTransfer in="SourceGraphic"><feFuncA tableValues="1.0 0.0" type="table"/></feComponentTransfer></filter><filter id="c" width="100%" height="100%" x="0%" y="0%" filterUnits="objectBoundingBox"><feComponentTransfer in="SourceGraphic"><feFuncA tableValues="1.0 0.0" type="table"/></feComponentTransfer></filter><filter id="e" width="100%" height="100%" x="0%" y="0%" filterUnits="objectBoundingBox"><feComponentTransfer in="SourceGraphic"><feFuncA tableValues="1.0 0.0" type="table"/></feComponentTransfer></filter><mask id="n" mask-type="alpha"><g filter="url(#a)"><path fill="#fff" d="M0 0h430v430H0z" opacity="0"/><use xmlns:ns1="http://www.w3.org/1999/xlink" ns1:href="#b"/></g></mask><mask id="m" mask-type="alpha"><g filter="url(#c)"><path fill="#fff" d="M0 0h430v430H0z" opacity="0"/><use xmlns:ns2="http://www.w3.org/1999/xlink" ns2:href="#d"/></g></mask><mask id="l" mask-type="alpha"><g filter="url(#e)"><path fill="#fff" d="M0 0h430v430H0z" opacity="0"/><use xmlns:ns3="http://www.w3.org/1999/xlink" ns3:href="#f"/></g></mask><path id="d" style="display:none"/><path id="f" style="display:none"/><g id="b" style="display:none"><path/><path fill-opacity="0" stroke-linecap="round" stroke-linejoin="round"/></g></defs><g clip-path="url(#g)"><g fill="none" clip-path="url(#h)" style="display:none"><g style="display:none"><path class="primary"/><path class="primary"/><path class="primary"/></g><path class="primary" style="display:none"/></g><g fill="none" stroke="#121330" stroke-linecap="round" stroke-linejoin="round" clip-path="url(#i)" style="display:block"><g stroke-width="12.95" style="display:block"><path d="m230.078 216.634-79.806 70.139m251.822-.304-78.667-69.18m-173.155-81.202L255.277 241.26c11.427 11.449 29.983 11.45 41.41.002l105.407-105.52" class="primary"/><path d="M150 135.406V302.42h252.172V135.426L150 135.406z" class="primary"/></g><path stroke-width="3.5" d="M-29.188-21.5h-21.85m21.85 11.284h-21.85M-29.147.932h-21.85m21.85 11.284h-21.85m21.795 11.149h-21.85" class="primary" style="display:block" transform="matrix(3.7 0 0 3.7 215 215)"/></g><g fill="none" clip-path="url(#j)" style="display:none"><path class="primary" style="display:none"/><g style="display:none"><path class="primary"/><path class="primary"/></g><path class="primary" style="display:none"/><path class="primary" style="display:none"/><path class="primary" style="display:none"/><path class="primary" style="display:none"/><path class="primary" style="display:none"/><path class="primary" style="display:none"/><path class="primary" style="display:none"/></g><g clip-path="url(#k)" style="display:none"><g mask="url(#l)" style="display:none"><path fill="none" class="secondary"/></g><path fill="none" class="primary" style="display:none"/><g mask="url(#m)" style="display:none"><path fill="none" class="primary"/></g><path fill="none" class="primary" style="display:none"/><g mask="url(#n)" style="display:none"><path fill="none" class="primary"/></g></g></g></svg>