<svg xmlns="http://www.w3.org/2000/svg" version="1.1" xmlns:xlink="http://www.w3.org/1999/xlink" xmlns:svgjs="http://svgjs.dev/svgjs" width="1440" height="639" preserveAspectRatio="none" viewBox="0 0 1440 639"><g mask="url(&quot;#SvgjsMask1050&quot;)" fill="none"><path d="M-107.48 22.28 a129.76 129.76 0 1 0 259.52 0 a129.76 129.76 0 1 0 -259.52 0z" fill="rgba(231, 231, 231, 1)" class="triangle-float1"></path><path d="M-105.11 19.91 a125.02 125.02 0 1 0 250.04 0 a125.02 125.02 0 1 0 -250.04 0z" fill="rgba(231, 231, 231, 1)" class="triangle-float1"></path><path d="M-58.99 -26.21 a32.78 32.78 0 1 0 65.56 0 a32.78 32.78 0 1 0 -65.56 0z" fill="rgba(231, 231, 231, 1)" class="triangle-float1"></path><path d="M1363.397,119.721C1390.267,119.482,1418.82,114.203,1433.086,91.432C1448.091,67.482,1444.095,37.227,1430.659,12.363C1416.435,-13.959,1393.311,-38.05,1363.397,-37.528C1334.091,-37.017,1314.245,-11.019,1300.082,14.642C1286.527,39.202,1277.048,68.665,1291.526,92.692C1305.684,116.189,1335.965,119.965,1363.397,119.721" fill="rgba(231, 231, 231, 1)" class="triangle-float2"></path><path d="M1422.884,227.767C1464.996,228.702,1502.979,205.515,1525.683,170.035C1550.515,131.23,1563.837,82.489,1541.705,42.083C1518.881,0.414,1470.35,-19.718,1422.884,-17.641C1378.828,-15.713,1341.128,12.612,1320.803,51.747C1302.015,87.923,1307.248,130.376,1327.698,165.639C1348.071,200.768,1382.285,226.866,1422.884,227.767" fill="rgba(231, 231, 231, 1)" class="triangle-float2"></path><path d="M1440.657,263.073C1493.184,263.752,1550.113,252.309,1576.546,206.913C1603.099,161.31,1586.472,105.178,1558.734,60.286C1532.635,18.046,1490.286,-11.487,1440.657,-13.017C1388.21,-14.634,1336.258,7.601,1309.255,52.592C1281.513,98.814,1282.171,157.749,1310.719,203.477C1337.765,246.8,1389.589,262.413,1440.657,263.073" fill="rgba(231, 231, 231, 1)" class="triangle-float2"></path><path d="M135.242,818.132C197.646,818.823,258.856,789.86,288.985,735.206C318.233,682.15,309.052,615.755,274.075,566.287C243.741,523.386,187.777,518.65,135.242,517.765C80.398,516.841,19.245,516.342,-11.939,561.467C-46.549,611.55,-42.998,679.054,-12.714,731.865C17.725,784.946,74.057,817.454,135.242,818.132" fill="rgba(231, 231, 231, 1)" class="triangle-float1"></path><path d="M83.927,703.82C121.662,703.096,153.148,678.667,172.522,646.277C192.516,612.852,202.266,571.774,183.243,537.787C163.857,503.151,123.608,487.052,83.927,487.99C45.922,488.888,11.621,509.485,-7.579,542.296C-26.985,575.457,-29.697,616.364,-10.758,649.794C8.439,683.681,44.987,704.567,83.927,703.82" fill="rgba(231, 231, 231, 1)" class="triangle-float1"></path><path d="M-73.36 499.37 a61.53 61.53 0 1 0 123.06 0 a61.53 61.53 0 1 0 -123.06 0z" fill="rgba(231, 231, 231, 1)" class="triangle-float2"></path><path d="M1415.14,726.946C1457.482,728.395,1498.634,711.158,1522.202,675.952C1548.802,636.217,1562.535,584.253,1538.232,543.073C1514.207,502.363,1462.41,494.25,1415.14,494.54C1368.526,494.826,1316.937,503.632,1294.633,544.565C1272.917,584.42,1295.042,631.166,1320.063,669.033C1341.989,702.217,1375.39,725.585,1415.14,726.946" fill="rgba(231, 231, 231, 1)" class="triangle-float3"></path><path d="M1177.76 560.43 a183.67 183.67 0 1 0 367.34 0 a183.67 183.67 0 1 0 -367.34 0z" fill="rgba(231, 231, 231, 1)" class="triangle-float2"></path><path d="M1461.743,829.137C1522.149,829.343,1580.539,799.032,1608.756,745.621C1635.443,695.105,1618.382,636.277,1589.748,586.839C1561.2,537.551,1518.702,491.669,1461.743,491.8C1404.95,491.931,1363.052,538.184,1334.755,587.426C1306.584,636.448,1290.162,694.57,1316.458,744.623C1344.386,797.781,1401.695,828.932,1461.743,829.137" fill="rgba(231, 231, 231, 1)" class="triangle-float3"></path></g><defs><mask id="SvgjsMask1050"><rect width="1440" height="639" fill="#ffffff"></rect></mask><style>
                @keyframes float1 {
                    0%{transform: translate(0, 0)}
                    50%{transform: translate(-10px, 0)}
                    100%{transform: translate(0, 0)}
                }

                .triangle-float1 {
                    animation: float1 5s infinite;
                }

                @keyframes float2 {
                    0%{transform: translate(0, 0)}
                    50%{transform: translate(-5px, -5px)}
                    100%{transform: translate(0, 0)}
                }

                .triangle-float2 {
                    animation: float2 4s infinite;
                }

                @keyframes float3 {
                    0%{transform: translate(0, 0)}
                    50%{transform: translate(0, -10px)}
                    100%{transform: translate(0, 0)}
                }

                .triangle-float3 {
                    animation: float3 6s infinite;
                }
            </style></defs></svg>