<svg xmlns="http://www.w3.org/2000/svg" version="1.1" xmlns:xlink="http://www.w3.org/1999/xlink" xmlns:svgjs="http://svgjs.dev/svgjs" width="1440" height="560" preserveAspectRatio="none" viewBox="0 0 1440 560"><g mask="url(&quot;#SvgjsMask1011&quot;)" fill="none"><path d="M-71.26 -3.4 a67.86 67.86 0 1 0 135.72 0 a67.86 67.86 0 1 0 -135.72 0z" fill="rgba(255, 255, 255, 0.4)" class="triangle-float3"></path><path d="M-24.490499436485607-4.2176750576938105L-53.47823248796793 103.96601748668185 123.29117285433674 93.35577079171749z" fill="rgba(255, 255, 255, 0.4)" class="triangle-float2"></path><path d="M54.197,134.36C84.322,134.729,114.933,124.048,130.363,98.172C146.121,71.745,142.292,38.863,127.094,12.11C111.69,-15.005,85.38,-36.272,54.197,-35.903C23.536,-35.541,-0.956,-13.045,-15.774,13.8C-30.035,39.635,-33.617,70.822,-18.804,96.345C-4.044,121.777,24.794,134,54.197,134.36" fill="rgba(255, 255, 255, 0.4)" class="triangle-float1"></path><path d="M1258.98 -5.66 a63.36 63.36 0 1 0 126.72 0 a63.36 63.36 0 1 0 -126.72 0z" fill="rgba(255, 255, 255, 0.4)" class="triangle-float2"></path><path d="M1474.438,301.621C1531.846,301.691,1587.112,277.72,1617.918,229.277C1651.144,177.028,1660.097,110.728,1630.372,56.41C1599.551,0.09,1538.613,-34.762,1474.438,-32.91C1413.113,-31.141,1362.735,11.125,1333.348,64.98C1305.29,116.4,1301.562,178.616,1331.56,228.929C1360.889,278.121,1417.166,301.552,1474.438,301.621" fill="rgba(255, 255, 255, 0.4)" class="triangle-float2"></path><path d="M1436.248,235.928C1478.256,233.088,1504.895,196.484,1526.838,160.55C1550.191,122.306,1577.32,78.492,1556.669,38.723C1535.031,-2.945,1483.131,-16.419,1436.248,-13.9C1393.829,-11.621,1358.42,14.275,1336.334,50.562C1313.166,88.628,1300.485,135.196,1321.628,174.423C1343.678,215.332,1389.881,239.063,1436.248,235.928" fill="rgba(255, 255, 255, 0.4)" class="triangle-float2"></path><path d="M-107.65 480.98 a140.63 140.63 0 1 0 281.26 0 a140.63 140.63 0 1 0 -281.26 0z" fill="rgba(255, 255, 255, 0.4)" class="triangle-float2"></path><path d="M-61.63 434.96 a48.59 48.59 0 1 0 97.18 0 a48.59 48.59 0 1 0 -97.18 0z" fill="rgba(255, 255, 255, 0.4)" class="triangle-float1"></path><path d="M37.630087889777165 373.29128356806154L-63.474835999766945 507.4620492560067 171.80085357772236 474.39620745760567z" fill="rgba(255, 255, 255, 0.4)" class="triangle-float2"></path><path d="M1345.4089038598497 630.225787860183L1493.7440994601495 551.3545653121533 1414.8728769121199 403.01936971185364 1266.53768131182 481.8905922598833z" fill="rgba(255, 255, 255, 0.4)" class="triangle-float2"></path><path d="M1511.495704353214 469.83762898011906L1366.0034365174283 385.8376289801191 1427.495704353214 615.3298968159047z" fill="rgba(255, 255, 255, 0.4)" class="triangle-float2"></path><path d="M1495.9366377853826 434.05422569213874L1332.242466901463 396.26244856236946 1294.4506897716938 559.956619446289 1458.1448606556132 597.7483965760582z" fill="rgba(255, 255, 255, 0.4)" class="triangle-float2"></path></g><defs><mask id="SvgjsMask1011"><rect width="1440" height="560" fill="#ffffff"></rect></mask><style>
                @keyframes float1 {
                    0%{transform: translate(0, 0)}
                    50%{transform: translate(-10px, 0)}
                    100%{transform: translate(0, 0)}
                }

                .triangle-float1 {
                    animation: float1 5s infinite;
                }

                @keyframes float2 {
                    0%{transform: translate(0, 0)}
                    50%{transform: translate(-5px, -5px)}
                    100%{transform: translate(0, 0)}
                }

                .triangle-float2 {
                    animation: float2 4s infinite;
                }

                @keyframes float3 {
                    0%{transform: translate(0, 0)}
                    50%{transform: translate(0, -10px)}
                    100%{transform: translate(0, 0)}
                }

                .triangle-float3 {
                    animation: float3 6s infinite;
                }
            </style></defs></svg>