<svg xmlns="http://www.w3.org/2000/svg" version="1.1" xmlns:xlink="http://www.w3.org/1999/xlink" xmlns:svgjs="http://svgjs.dev/svgjs" width="1440" height="650" preserveAspectRatio="none" viewBox="0 0 1440 650"><g mask="url(&quot;#SvgjsMask1013&quot;)" fill="none"><path d="M -501.6064394046741,326 C -405.61,298 -213.61,134.8 -21.60643940467409,186 C 170.39,237.2 266.39,576.6 458.3935605953259,582 C 650.39,587.4 746.39,259.6 938.3935605953259,213 C 1130.39,166.4 1318.07,350.2 1418.3935605953259,349 C 1518.71,347.8 1435.68,235.4 1440,207" stroke="rgba(231, 231, 231, 1)" stroke-width="2"></path><path d="M -212.20723925591403,585 C -116.21,493 75.79,125.8 267.79276074408597,125 C 459.79,124.2 555.79,544 747.792760744086,581 C 939.79,618 1035.79,349.8 1227.792760744086,310 C 1419.79,270.2 1665.35,386.4 1707.792760744086,382 C 1750.23,377.6 1493.56,306.8 1440,288" stroke="rgba(231, 231, 231, 1)" stroke-width="2"></path><path d="M -913.2984730983529,268 C -817.3,320.6 -625.3,561.4 -433.29847309835293,531 C -241.3,500.6 -145.3,113.2 46.70152690164707,116 C 238.7,118.8 334.7,509.8 526.7015269016471,545 C 718.7,580.2 824.04,304.2 1006.7015269016471,292 C 1189.36,279.8 1353.34,445.6 1440,484" stroke="rgba(231, 231, 231, 1)" stroke-width="2"></path></g><defs><mask id="SvgjsMask1013"><rect width="1440" height="650" fill="#ffffff"></rect></mask></defs></svg>