<svg xmlns="http://www.w3.org/2000/svg" version="1.1" xmlns:xlink="http://www.w3.org/1999/xlink" xmlns:svgjs="http://svgjs.dev/svgjs" width="1440" height="650" preserveAspectRatio="none" viewBox="0 0 1440 650">
    <g mask="url(&quot;#SvgjsMask1119&quot;)" fill="none">
        <path d="M -542.6784078191499,550 C -398.68,485.2 -110.68,257.2 177.32159218085008,226 C 465.32,194.8 609.32,403.6 897.3215921808501,394 C 1185.32,384.4 1508.79,166 1617.32159218085,178 C 1725.86,190 1475.46,398.8 1440,454" stroke="rgba(231, 231, 231, 1)" stroke-width="2"></path>
        <path d="M -1424.593299625913,347 C -1280.59,312 -992.59,142.8 -704.5932996259131,172 C -416.59,201.2 -272.59,509.2 15.406700374086881,493 C 303.41,476.8 450.49,84 735.4067003740869,91 C 1020.33,98 1299.08,440.6 1440,528" stroke="rgba(231, 231, 231, 1)" stroke-width="2"></path>
        <path d="M -1410.2431579424815,583 C -1266.24,500.4 -978.24,172.4 -690.2431579424814,170 C -402.24,167.6 -258.24,551.6 29.75684205751861,571 C 317.76,590.4 467.71,286.6 749.7568420575186,267 C 1031.81,247.4 1301.95,431.8 1440,473" stroke="rgba(231, 231, 231, 1)" stroke-width="2"></path>
        <path d="M -1343.7997942879297,166 C -1199.8,222 -911.8,460.2 -623.7997942879296,446 C -335.8,431.8 -191.8,113.2 96.20020571207044,95 C 384.2,76.8 547.44,331 816.2002057120704,355 C 1084.96,379 1315.24,243 1440,215" stroke="rgba(231, 231, 231, 1)" stroke-width="2"></path>
    </g>
    <defs>
        <mask id="SvgjsMask1119">
            <rect width="1440" height="650" fill="#ffffff"></rect>
        </mask>
    </defs>
</svg>